<svg width="118" height="21" viewBox="0 0 118 21" fill="none" xmlns="http://www.w3.org/2000/svg">
<path d="M0.34 0.959999H5.66667L7.395 15.7217H7.565L10.6533 0.846666H16.5183L19.6067 15.7217H19.7767L21.505 0.959999H26.86L23.375 20H16.1783L13.6 6.74L11.0217 20H3.79667L0.34 0.959999ZM32.0262 20.3683C30.4584 20.3683 29.2873 19.9717 28.5129 19.1783C27.7573 18.3661 27.3795 17.1383 27.3795 15.495C27.3795 13.9272 27.7951 12.8317 28.6262 12.2083C29.4762 11.5661 30.8456 11.1978 32.7345 11.1033L34.8312 10.99V10.3383C34.8312 10.0172 34.7462 9.81889 34.5762 9.74333C34.4251 9.64889 34.0945 9.60167 33.5845 9.60167L31.0345 9.65833C29.4101 9.73389 28.5412 9.75278 28.4279 9.715L28.3145 6.4C30.3545 5.77667 32.3379 5.465 34.2645 5.465C36.2101 5.465 37.6079 5.85222 38.4579 6.62667C39.3079 7.38222 39.7329 8.61944 39.7329 10.3383V15.325C39.7517 15.5328 39.7706 15.7689 39.7895 16.0333C39.8084 16.2789 39.8462 16.4489 39.9029 16.5433C39.9595 16.6189 40.0634 16.6756 40.2145 16.7133L40.0729 20.3683C38.9017 20.3683 38.0234 20.3117 37.4378 20.1983C36.8712 20.1039 36.2479 19.8678 35.5679 19.49C34.3967 20.0756 33.2162 20.3683 32.0262 20.3683ZM33.1595 16.43C33.4617 16.43 33.9245 16.3828 34.5479 16.2883L34.8312 16.26V14.305L33.3295 14.4183C33.0084 14.4561 32.7534 14.5694 32.5645 14.7583C32.3756 14.9472 32.2812 15.2117 32.2812 15.5517C32.2812 16.1372 32.574 16.43 33.1595 16.43ZM48.0226 20.3683C46.8515 20.3683 45.9353 20.1889 45.2742 19.83C44.6131 19.4522 44.1409 18.8667 43.8576 18.0733C43.5742 17.28 43.4326 16.2033 43.4326 14.8433V9.99833H41.9876V5.83333H43.4326V2.15H48.3626V5.83333H51.1676V9.99833H48.3626V15.155C48.3626 15.7217 48.5703 15.9861 48.9859 15.9483L50.9126 15.9767L51.0826 19.8583C50.2703 20.0661 49.6659 20.1983 49.2692 20.255C48.8915 20.3306 48.4759 20.3683 48.0226 20.3683ZM58.7056 20.3683C56.7033 20.3683 55.2206 19.7639 54.2572 18.555C53.2939 17.3461 52.8122 15.4667 52.8122 12.9167C52.8122 10.8956 53.0672 9.34667 53.5772 8.27C54.0872 7.17444 54.7956 6.43778 55.7022 6.06C56.6089 5.66333 57.7706 5.465 59.1872 5.465C59.7539 5.465 60.3867 5.52167 61.0856 5.635C61.7844 5.74833 62.7006 5.93722 63.8339 6.20167L63.7206 10.055C61.9639 9.92278 60.8683 9.85667 60.4339 9.85667C59.6972 9.85667 59.14 9.95111 58.7622 10.14C58.3844 10.31 58.1294 10.6028 57.9972 11.0183C57.865 11.4339 57.7989 12.0383 57.7989 12.8317C57.7989 13.6817 57.865 14.3333 57.9972 14.7867C58.1483 15.2211 58.4128 15.5328 58.7906 15.7217C59.1683 15.8917 59.7161 15.9767 60.4339 15.9767L63.6922 15.7783L63.8339 19.66C61.6994 20.1322 59.99 20.3683 58.7056 20.3683ZM66.3874 0.506667H71.3174V6.42833C71.9408 6.06944 72.4791 5.82389 72.9324 5.69167C73.3858 5.54056 73.9147 5.465 74.5191 5.465C76.2191 5.465 77.4469 6.04111 78.2024 7.19333C78.9769 8.34556 79.3641 10.0078 79.3641 12.18V20H74.4624V12.2933C74.4624 11.5 74.3397 10.8956 74.0941 10.48C73.8674 10.0644 73.4519 9.85667 72.8474 9.85667C72.4319 9.85667 72.0069 9.90389 71.5724 9.99833L71.3174 10.055V20H66.3874V0.506667ZM88.1036 20.3683C85.8369 20.3683 84.1842 19.8111 83.1453 18.6967C82.1253 17.5822 81.6153 15.7594 81.6153 13.2283C81.6153 10.6406 82.1536 8.70444 83.2303 7.42C84.3258 6.11667 85.988 5.465 88.2169 5.465C90.2758 5.465 91.853 5.99389 92.9486 7.05167C94.063 8.10944 94.6203 9.65833 94.6203 11.6983L94.2236 15.0133H86.5736C86.6303 15.3533 86.7342 15.5989 86.8853 15.75C87.0553 15.9011 87.2819 15.9956 87.5653 16.0333C87.8486 16.0522 88.3303 16.0617 89.0103 16.0617C89.6903 16.0617 90.493 16.0428 91.4186 16.005C92.363 15.9672 93.0053 15.9294 93.3453 15.8917L94.1103 15.8067L94.1669 19.3483C92.0703 20.0283 90.0492 20.3683 88.1036 20.3683ZM89.8036 11.33C89.8036 10.5933 89.6903 10.1022 89.4636 9.85667C89.2369 9.59222 88.8025 9.46 88.1603 9.46C87.518 9.46 87.093 9.59222 86.8853 9.85667C86.6775 10.1022 86.5642 10.5933 86.5453 11.33H89.8036ZM101.723 20.3683C99.7589 20.3683 98.3422 19.7639 97.4733 18.555C96.6233 17.3272 96.1983 15.5044 96.1983 13.0867C96.1983 10.4611 96.6611 8.53444 97.5866 7.30667C98.5122 6.07889 99.8911 5.465 101.723 5.465C102.12 5.465 102.554 5.50278 103.027 5.57833C103.518 5.65389 103.839 5.70111 103.99 5.72C104.141 5.75778 104.283 5.78611 104.415 5.805C104.566 5.82389 104.698 5.84278 104.812 5.86167V0.506667H109.742V20H104.84V19.66C104.066 19.9811 103.461 20.1794 103.027 20.255C102.611 20.3306 102.177 20.3683 101.723 20.3683ZM102.942 15.9767C102.979 15.9767 103.055 15.9861 103.168 16.005C103.301 16.0239 103.452 16.0333 103.622 16.0333C103.848 16.0333 104.151 16.005 104.528 15.9483L104.812 15.9767V9.94167C103.981 9.79056 103.291 9.715 102.743 9.715C102.233 9.715 101.837 9.97 101.553 10.48C101.289 10.9711 101.157 11.8306 101.157 13.0583C101.157 14.1917 101.289 14.9661 101.553 15.3817C101.837 15.7783 102.299 15.9767 102.942 15.9767Z" fill="#FBDC3E"/>
<path d="M112.646 14.305H117.888V20H112.646V14.305Z" fill="white"/>
</svg>
